#!OML:ASF H:\Terrain\Patient Classification 1\Terrain2\Thursday\justin.ASF
:FULLY-SPECIFIED
:DEGREES
1966
root -1.72877 17.2354 -20.4269 626.345 85.2382 263.995
lowerback 4.35258 -1.23057 0.759839
upperback 1.8062 -1.49805 3.67391
thorax -0.504582 -0.725609 3.42317
lowerneck -13.8256 -3.99071 -9.20693
upperneck 38.0053 -3.88578 5.82498
head 16.2441 -1.66382 3.65911
rclavicle -1.49089e-015 -1.39149e-014
rhumerus -36.7372 -13.8712 -77.2588
rradius 25.2362
rwrist -7.68915
rhand -18.4687 12.0387
rfingers 7.12502
rthumb 7.81794 -17.7967
lclavicle -1.49089e-015 -1.39149e-014
lhumerus -32.3993 -1.03552 88.1685
lradius 34.3468
lwrist 3.56211
lhand -17.9691 21.5411
lfingers 7.12502
lthumb 8.30014 51.3581
rfemur -12.4381 -4.91347 28.0469
rtibia 33.2711
rfoot -20.2589 0.542832
rtoes 10.6888
lfemur -3.81905 4.65163 -15.9615
ltibia 32.0974
lfoot -18.0353 2.38921
ltoes -5.48007
1967
root -1.70111 17.2219 -20.4086 627.344 85.1228 265.167
lowerback 4.36975 -1.04178 1.10442
upperback 1.92732 -1.23481 3.58172
thorax -0.413613 -0.591778 3.12024
lowerneck -13.7189 -4.06541 -8.9821
upperneck 37.8519 -4.05495 5.76096
head 16.1462 -1.70924 3.55283
rclavicle 2.68359e-015 -4.37326e-015
rhumerus -36.858 -14.1155 -77.3814
rradius 25.2989
rwrist -7.57845
rhand -18.4496 11.5108
rfingers 7.12502
rthumb 7.83644 -18.324
lclavicle 2.68359e-015 -4.37326e-015
lhumerus -32.1336 -1.76977 88.4252
lradius 34.4607
lwrist 3.20034
lhand -17.9716 21.0959
lfingers 7.12502
lthumb 8.29774 50.9129
rfemur -11.8521 -5.09047 28.1671
rtibia 32.742
rfoot -20.1894 1.06212
rtoes 12.0114
lfemur -4.01999 4.99124 -15.6163
ltibia 33.0356
lfoot -17.7402 2.00712
ltoes -7.00975
1968
root -1.66647 17.2388 -20.3932 629.621 84.9745 267.574
lowerback 4.34861 -0.911373 1.4992
upperback 2.01867 -1.04933 3.46797
thorax -0.32612 -0.496213 2.77051
lowerneck -13.5743 -4.05744 -8.56094
upperneck 37.661 -4.1425 5.63134
head 16.0004 -1.70343 3.39512
rclavicle -2.20651e-014 3.77691e-014
rhumerus -36.8812 -14.2458 -77.6229
rradius 25.2117
rwrist -7.68848
rhand -18.1243 11.4391
rfingers 7.12502
rthumb 8.15035 -18.3837
lclavicle -2.20651e-014 3.77691e-014
lhumerus -31.9674 -2.03622 88.4737
lradius 34.5341
lwrist 2.63366
lhand -18.1633 20.8552
lfingers 7.12502
lthumb 8.1127 50.6795
rfemur -11.3441 -5.31386 28.3836
rtibia 32.2416
rfoot -20.1225 1.22439
rtoes 11.222
lfemur -4.24243 5.21038 -15.2987
ltibia 34.0025
lfoot -17.5774 1.68303
ltoes -8.35164
1969
root -1.63722 17.2297 -20.3888 630.502 84.7166 268.474
lowerback 4.27571 -0.981653 1.97659
upperback 2.03838 -1.12506 3.47743
thorax -0.271486 -0.529824 2.51387
lowerneck -13.5158 -3.94247 -8.18186
upperneck 37.6013 -3.9735 5.31225
head 15.9143 -1.62312 3.2125
rclavicle -4.12478e-015 1.94809e-014
rhumerus -36.7439 -13.9217 -77.8945
rradius 24.9667
rwrist -7.76372
rhand -17.9883 11.7562
rfingers 7.12502
rthumb 8.28165 -18.0614
lclavicle -4.12478e-015 1.94809e-014
lhumerus -32.0202 -1.98548 88.5034
lradius 34.7761
lwrist 2.35394
lhand -18.2235 20.7742
lfingers 7.12502
lthumb 8.05467 50.6007
rfemur -10.9572 -5.34159 28.644
rtibia 31.7272
rfoot -19.9695 1.48665
rtoes 11.9377
lfemur -4.70014 5.31432 -14.9092
ltibia 35.0614
lfoot -17.2497 1.28264
ltoes -9.3212
1970
root -1.60889 17.2193 -20.3818 628.631 84.7583 266.706
lowerback 4.41107 -1.0187 2.09076
upperback 2.01764 -1.16199 3.47745
thorax -0.369562 -0.54723 2.45431
lowerneck -13.5057 -3.96955 -8.22575
upperneck 37.6816 -3.96627 5.24042
head 15.9527 -1.63406 3.19402
rclavicle -1.57537e-014 -3.97569e-016
rhumerus -36.7361 -13.8668 -77.8714
rradius 24.7439
rwrist -7.39813
rhand -17.9317 12.1888
rfingers 7.12502
rthumb 8.33627 -17.6267
lclavicle -1.57537e-014 -3.97569e-016
lhumerus -32.1036 -2.356 88.7481
lradius 35.1325
lwrist 2.54138
lhand -17.777 20.696
lfingers 7.12502
lthumb 8.48556 50.5055
rfemur -10.5557 -5.38409 28.5603
rtibia 31.2703
rfoot -19.8542 1.72424
rtoes 13.2473
lfemur -5.11319 5.49259 -14.7592
ltibia 36.1161
lfoot -16.6732 0.581524
ltoes -8.94846
